<?xml version="1.0" standalone="no"?>
<!DOCTYPE svg PUBLIC "-//W3C//DTD SVG 20010904//EN"
 "http://www.w3.org/TR/2001/REC-SVG-20010904/DTD/svg10.dtd">
<svg version="1.0" xmlns="http://www.w3.org/2000/svg"
 width="200.000000pt" height="200.000000pt" viewBox="0 0 200.000000 200.000000"
 preserveAspectRatio="xMidYMid meet">

<g transform="translate(0.000000,200.000000) scale(0.100000,-0.100000)"
fill="#000000" stroke="none">
<path d="M1817 1423 c-4 -3 -7 -33 -7 -65 0 -32 -4 -58 -10 -58 -6 0 -10 -30
-10 -69 0 -64 2 -72 30 -99 27 -28 30 -36 30 -97 0 -79 -16 -122 -59 -158 -24
-20 -43 -27 -76 -27 -43 0 -43 0 -47 -40 l-4 -40 49 0 c62 0 105 19 150 65 45
46 67 110 67 193 0 60 3 67 35 103 32 36 35 44 35 103 0 48 -4 65 -15 70 -11
4 -15 21 -15 66 0 53 -2 61 -17 58 -15 -3 -19 -16 -21 -66 l-3 -63 -37 3 -37
3 -3 63 c-3 58 -14 76 -35 55z"/>
<path d="M845 1230 c-94 -11 -146 -30 -301 -109 -118 -62 -139 -69 -225 -80
-111 -14 -180 -43 -244 -102 -62 -57 -74 -83 -71 -154 3 -58 4 -61 42 -82 21
-12 56 -25 77 -28 l37 -7 0 47 c0 62 30 112 84 136 52 23 80 23 132 0 53 -24
86 -76 86 -136 l0 -45 389 0 389 0 0 43 c0 59 29 107 80 134 54 29 84 29 140
1 52 -27 83 -74 86 -132 2 -23 3 -42 3 -44 1 -2 13 6 27 17 15 12 32 21 39 21
20 0 35 47 35 108 0 103 -11 123 -133 244 -84 84 -108 113 -94 116 35 8 15 21
-50 31 -171 28 -384 36 -528 21z m55 -37 c0 -10 -9 -49 -18 -88 l-18 -70 -45
-7 c-24 -3 -113 -7 -198 -7 l-154 -1 23 25 c45 48 251 142 342 155 29 4 56 8
61 9 4 0 7 -7 7 -16z m369 -5 l32 -13 -23 -45 c-19 -38 -30 -47 -67 -57 -42
-12 -250 -37 -256 -31 -2 2 -1 41 2 87 l6 84 137 -6 c76 -3 151 -12 169 -19z"/>
<path d="M274 839 c-18 -5 -46 -25 -63 -44 -60 -69 -31 -174 57 -205 37 -13
47 -13 84 0 88 31 117 136 57 204 -39 46 -83 60 -135 45z"/>
<path d="M1360 839 c-38 -8 -86 -55 -96 -94 -17 -68 34 -148 102 -161 107 -20
190 98 139 196 -24 47 -86 72 -145 59z"/>
</g>
</svg>
