<svg id="Layer_1" enable-background="new 0 0 512.003 512.003" height="512" viewBox="0 0 512.003 512.003" width="512" xmlns="http://www.w3.org/2000/svg"><g><path d="m.002 465.962v1.042c0 24.813 20.187 45 45 45h30c19.926 0 36.858-13.023 42.759-31h-72.759c-16.872-.001-32.457-5.604-45-15.042z"/><path d="m113.943 298.503v-17.486c-34.823.316-65.994 16.185-86.894 40.986h63.394c12.958 0 23.5-10.542 23.5-23.5z"/><path d="m369.236 298.503c0 12.958 10.542 23.5 23.5 23.5h62.218c-20.665-24.521-51.37-40.313-85.718-40.971z"/><path d="m482.002 406.003v-10c0-16.17-3.361-31.567-9.411-45.54-1.991.977-4.222 1.54-6.589 1.54h-73.266c-29.5 0-53.5-24-53.5-53.5v-17.5h-195.293v17.5c0 29.5-24 53.5-53.5 53.5h-73.266c-2.753 0-5.324-.754-7.542-2.049-6.19 14.108-9.634 29.682-9.634 46.049v10c0 24.813 20.187 45 45 45h85.925c7.725-33.189 37.526-58 73.033-58h74.083c35.507 0 65.308 24.811 73.033 58h85.925c24.815 0 45.002-20.187 45.002-45z"/><path d="m278.044 423.003h-74.084c-18.801 0-34.939 11.591-41.66 28h157.403c-6.72-16.409-22.859-28-41.659-28z"/><path d="m209.134 85.003h38.053l-18.155 32.185c-4.07 7.216-1.52 16.364 5.695 20.435 2.33 1.314 4.859 1.938 7.356 1.938 5.236 0 10.322-2.747 13.079-7.633l30.772-54.554c2.62-4.645 2.577-10.33-.112-14.935-2.688-4.604-7.62-7.435-12.952-7.435h-36.102l20.68-31.829c4.513-6.947 2.54-16.237-4.406-20.75-6.948-4.515-16.238-2.541-20.75 4.406l-35.735 55.001c-2.997 4.612-3.229 10.495-.605 15.328 2.623 4.833 7.682 7.843 13.182 7.843z"/><path d="m364.243 481.003c5.901 17.978 22.833 31 42.759 31h30.001c24.813 0 45-20.187 45-45v-1.042c-12.544 9.438-28.129 15.042-45.001 15.042z"/><path d="m367.002 251.003c11.406 0 22.507 1.329 33.161 3.831l-16.756-35.476c-15.642-33.117-40.868-51.355-71.033-51.355h-142.785c-30.173 0-55.401 18.243-71.038 51.368l-16.744 35.471c10.664-2.507 21.776-3.839 33.193-3.839z"/><path d="m482.001 236.002v-75.514c-4.471.906-9.05 1.423-13.701 1.503-.425.007-.853.011-1.276.011-5.144 0-10.167-.528-15.022-1.529v75.528c0 13.147-5.669 24.994-14.688 33.229 8.91 4.961 17.248 10.829 24.882 17.488 12.286-13.362 19.805-31.175 19.805-50.716z"/><path d="m512.001 27.003c0-8.284-6.716-15-15-15s-15 6.716-15 15v11.936h30z"/><path d="m422.002 68.939v17.266c0 25.181 20.606 46.223 45.783 45.791 24.454-.42 44.217-20.442 44.217-44.993v-18.064z"/><path d="m452.001 27.003c0-8.284-6.716-15-15-15s-15 6.716-15 15v11.936h30z"/></g></svg>